<svg xmlns="http://www.w3.org/2000/svg" viewBox="0 0 500 400" width="100%" height="100%">
  <!-- 工具图标 -->
  <g transform="translate(250, 200)" fill="none" stroke="white" stroke-width="3" stroke-linecap="round" stroke-linejoin="round">
    <!-- 扳手 -->
    <path d="M-70,-20 L-40,10 L-30,0 L-10,20 L-20,30 L-40,10 L-30,0 L-60,-30 Z" fill="rgba(255,255,255,0.2)" />
    
    <!-- 齿轮 -->
    <g transform="translate(40, 0)">
      <circle cx="0" cy="0" r="30" fill="rgba(255,255,255,0.15)" />
      <circle cx="0" cy="0" r="15" />
      <!-- 齿轮齿 -->
      <path d="M0,-45 L0,-30 M30,-30 L20,-20 M45,0 L30,0 M30,30 L20,20 M0,45 L0,30 M-30,30 L-20,20 M-45,0 L-30,0 M-30,-30 L-20,-20" />
    </g>
    
    <!-- 代码符号 -->
    <g transform="translate(-20, -60)">
      <path d="M-20,0 L-5,15 L-20,30" />
      <path d="M20,0 L5,15 L20,30" />
    </g>
    
    <!-- 进度条 -->
    <g transform="translate(0, 60)">
      <rect x="-40" y="-10" width="80" height="20" rx="5" fill="rgba(255,255,255,0.1)" />
      <rect x="-40" y="-10" width="40" height="20" rx="5" fill="rgba(106,143,251,0.6)" />
    </g>
  </g>
  
  <!-- 装饰性元素 -->
  <circle cx="100" cy="80" r="20" fill="rgba(255,255,255,0.1)" />
  <circle cx="400" cy="320" r="30" fill="rgba(255,255,255,0.1)" />
  <circle cx="150" cy="350" r="15" fill="rgba(255,255,255,0.1)" />
  <circle cx="350" cy="100" r="25" fill="rgba(255,255,255,0.1)" />
  
  <!-- 连接线 -->
  <path d="M100,100 C150,150 200,50 250,150 C300,250 350,100 400,200" stroke="rgba(255,255,255,0.1)" stroke-width="2" fill="none" />
</svg>